<svg xmlns="http://www.w3.org/2000/svg" width="627.061" height="962.669" viewBox="0 0 627.061 962.669">
  <g id="Background_Flower_Image" data-name="Background Flower Image" opacity="0.395">
    <g id="Group_13" data-name="Group 13" transform="translate(0 378.275)">
      <path id="Path_2947" data-name="Path 2947" d="M433.1,692.5C455,738.1,491.6,777.7,539,796.9c53.2,21.5,115.8,7.7,167.7-11,53-19.1,90.3-57.6,102.6-112.9,11.1-49.8-1.1-103.2-23.6-147.9-33.8-67.2-107.7-121-183.2-127.6-79.3-7-164.7,47.3-189,123.2C395.5,576.8,408.2,640.6,433.1,692.5Z" transform="translate(-405.038 -396.893)" fill="#c1d6cb"/>
    </g>
    <g id="Group_14" data-name="Group 14" transform="translate(310.287 0)">
      <path id="Path_2948" data-name="Path 2948" d="M440.97,138.3c9,0,19-2,30.6-6.2,16.1-5.8,26.9-17.7,30.4-33.5,2.9-13.2.5-28.4-6.7-42.9-10-19.8-31.8-35-53-36.9-23.8-2.1-48.4,14.2-55.5,36.2-4.7,14.5-2.6,32.7,5.5,49.7,6.9,14.3,17.8,25.1,30.9,30.4A48.211,48.211,0,0,0,440.97,138.3Zm-2.9-112.1a20.554,20.554,0,0,1,3.5.2c18.8,1.7,38.1,15.1,47,32.8,6.5,12.9,8.7,26.4,6.1,37.9-3,13.4-11.8,23.1-25.6,28.1-18.1,6.5-32.1,7.5-43.1,3.1-11.3-4.6-20.9-14-26.9-26.6-7.4-15.3-9.2-31.4-5.2-44.1C399.47,39.9,418.87,26.2,438.07,26.2Z" transform="translate(-384.299 -18.618)" fill="#567570"/>
    </g>
    <path id="Path_2949" data-name="Path 2949" d="M634.6,707c-10.4-27.4-22.3-54.2-34.9-80.7-14.8-31.1-29.9-58.4-50-86.3-8.7-12.1-18.1-23.6-27-35.3-18.6-23-37.2-45.4-57.3-66.2-33-34.7-66.9-67.8-99.2-102.7-31.3-33.9-60.2-70-85-109.4-31.1-49.5-54.8-102.7-94.3-146.8-1.7-1.8,1.3-3.9,3-2.3.7.7,1.3,1.4,2,2,35.6,21.3,69.7,44.2,102,69.7a781.689,781.689,0,0,1,93.8,86.7A654.83,654.83,0,0,1,465,339.6c24.5,40.9,42.4,85.4,62.1,128.8,13.9,30.7,29.3,60.7,44.9,91.2,26.8,52.4,53.5,105.1,72.9,160.8,2.4,7,4.7,14,6.8,21.2,1.2-4.5,2.3-9.1,3.2-13.7q1.8-10.65,3-21.6l1.2-11,.5-11c.2-7.4.5-14.8.7-22.2.1-7.4-.1-14.7-.1-22.1-.1-7.4.3-14.9.2-22.2,0-7.3.2-14.7.6-22.1.3-3.7.5-7.4.8-11.1.2-3.6.5-7.3.9-10.9.8-7.4,1.5-14.9,2-22.4a131.612,131.612,0,0,0-.6-22.6c-1.8-18.6-10.2-36.2-17.5-53.2-3.4-7.3-6.6-14.5-9.8-21.7-1.5-3.6-3.1-7.2-4.6-10.8-1.5-3.5-3.1-7.1-4.6-10.6-3-7.1-5.8-14.3-8.5-21.6-2.8-7.2-5.5-14.4-8-21.8-17.6-51.9-31.5-106.4-27.9-158.3a214.47,214.47,0,0,1,5.4-35.9,229.157,229.157,0,0,1,10.9-34.4c9.1-21.9,21.9-42.1,37.9-58.6,1.6-1.6,4.7,1.5,3.1,3.2-.2.3-.5.5-.7.8,8,48.2,6.9,97.5,17.9,147.4a248.307,248.307,0,0,0,11.9,38.5c4.8,12.9,10.4,25.4,16,38.2,5.5,13.1,11.2,25.7,16.1,39.1,2.4,6.7,4.7,13.4,6.8,20.2,1,3.4,2,6.7,2.9,10.1q1.35,5.25,2.4,10.5a230.022,230.022,0,0,1,4.2,31.3,272.048,272.048,0,0,1-.1,31.3,265.439,265.439,0,0,1-3.5,30.6c-1.7,10.1-3.5,19.8-5.8,29.5-5.3,21.6-11.3,41.9-18.4,62.5-2,6-3.9,12-5.8,17.9-1.8,5.9-4,12.1-6,18-2.1,6-4.2,11.9-6.4,17.6-5.7,14.9-5.7,29.7-6.3,45.8l-.5,5.4c-.4,3.6-.8,7.2-1.2,10.7-1,7.1-2.1,14-3.7,20.8-9.3,38.2,7.5,80.2,6,120.5-1.1,32.2-7.6,64.4-19.9,94.1-.2.9-.5,1.8-.7,2.8a3.716,3.716,0,0,1-1.2,1.7A227.849,227.849,0,0,1,628.8,980c-1.8,3.1-5.8,0-4-3,10-16.8,16.9-32.4,19.9-52.3.5-3.8,1-7.5,1.4-11.3.2-1.9.3-3.7.5-5.6v-5.7a132.278,132.278,0,0,0-2.3-22,93.883,93.883,0,0,0-2.8-10.4c-3.4-9.7-10.5-19.7-17.6-27.2a117.553,117.553,0,0,0-16.3-14.3c-11.9-8.7-24.8-15.7-36.2-21.9a252.243,252.243,0,0,0-45.3-18.6A339.356,339.356,0,0,0,478.6,777c-31.6-4.7-64-7.4-93.1-13.6-14-2.9-27.1-6.2-38.4-9.6-2.8-.9-5.5-1.7-8.3-2.6-2.7-.9-5.4-1.8-8.2-2.8-5.3-1.9-10.2-3.8-14.8-5.7-2.3-1-4.6-2-7-3-2.3-1-4.6-2.1-6.7-3.2-4.4-2.2-8.1-4.3-12.2-6.7a177.114,177.114,0,0,1-22.1-15.4c-1.7-1.4-3.4-2.8-5-4.3s-3.3-3-4.9-4.5c-3.4-3.1-6.6-6.3-9.5-9.5-3-3.2-6.4-6.8-9.4-10.2l-9.1-10.8c-3.1-3.7-6-7.5-8.9-11.3-3.2-3.9-6.2-7.9-9.1-11.8-6.2-8.2-12.2-16.2-18.1-23.9-1.2-1.5,2.2-4.1,3.6-2.8a118.361,118.361,0,0,0,24.7,18.5,157.641,157.641,0,0,0,28.1,12.4,275.793,275.793,0,0,0,31.3,8.3c10.8,2.2,22.6,4.2,34.1,5.8,6,.8,11.9,1.6,17.9,2.4,6.1.8,12.2,1.6,18.3,2.3,12.1,1.5,24.7,3.1,37.4,5,24.6,3.6,50.4,8.3,73.9,15.2,5.7,1.6,11.4,3.4,17.1,5.3s11,4,16.5,6.2,11,4.6,16.4,7.2c5.4,2.5,11,5.2,16.1,8.2a310.4,310.4,0,0,1,30.7,19.6,296.1,296.1,0,0,1,27.7,24.2A245.047,245.047,0,0,1,611.7,795a154.481,154.481,0,0,1,10.2,16.4c3.2,5.7,6.2,11.5,9.1,17.6a386.837,386.837,0,0,1,17,39.8c4.4,12.1,5.6,25.7,5.3,39.6-.1,1.4-.2,2.8-.4,4.2a279.794,279.794,0,0,0,9-69.9C661.8,795.6,650.8,749.4,634.6,707Zm-112-236c-19.2-41.3-36.2-83.9-58.9-123.5-21.7-37.7-47.6-72.5-76-104.7-28.9-32.8-60.8-62.3-94.4-89.2-30.6-24.5-62.7-46.8-95.7-68,34.8,38.5,56.8,86.1,83.3,130.4,24.5,41.1,54.6,78.3,86.5,113.4,33.8,37.1,70,71.9,104.9,108.7,19.6,20.4,39.1,41.4,57.8,63.7,6.7,8.4,13.6,16.8,20,25.5C540.7,508.6,531.4,489.9,522.6,471ZM669.8,632.6c3.5-10.4,7-20.6,10.5-30.8s7.5-20.8,10.7-31c3.3-10.3,6.5-20.7,9.3-31.2,11.4-44.1,16.6-91.6,5.3-139.9a340.509,340.509,0,0,0-11.8-38c-4.7-12.2-9.8-24.5-14.9-36.4-5.2-11.8-10.2-23.8-14.8-35.7a282.532,282.532,0,0,1-11.6-36.2,265.01,265.01,0,0,1-6.2-36.5c-1.4-12.1-2.3-24.1-3.3-36.2-2-24.5-4.3-49-4.9-73-31.9,35.8-48.2,83.6-50.7,134.1-2.8,56.7,17.9,117.6,38.2,173.9,2.7,7.6,5.8,14.9,9.1,22.1,3.3,7.3,6.6,14.7,10,22a387.738,387.738,0,0,1,18.5,45.1,139.533,139.533,0,0,1,6,37.8c.2,12.5-1,24.9-2.3,37.6a284.231,284.231,0,0,0-1.6,43.2c0,7.3.1,14.6.4,21.9v.5C667,641.4,668.3,637,669.8,632.6ZM633.5,844.5c-1.3-3.3-2.6-6.6-4-9.8s-3.1-6.4-4.7-9.6c-3.3-6.3-6.7-12.3-10.3-18.1-1.8-2.9-3.5-5.7-5.5-8.5s-4.1-5.5-6.2-8.2c-8.5-10.7-16.8-20.5-26.9-29.3-19.2-17.7-41.3-31.8-63.9-42.8a368.987,368.987,0,0,0-35-14.4c-12-4.1-24.2-7.6-36.2-10.5-11-2.7-23-5.1-34.6-7.1-11.7-2-23.1-3.7-35-5.3-11.4-1.5-22.9-2.9-34.5-4.4s-22.7-2.9-33.4-4.5c-21.8-3.3-41.9-7.3-60.3-13.9-2.3-.8-4.4-1.6-6.7-2.5s-4.5-1.9-6.7-2.9a125,125,0,0,1-12.6-6.6c-2.6-1.6-5.4-3.3-8.1-5.2,10.8,14.4,21,28.2,31.6,40.5,14.5,16.7,28.8,30.4,47.5,42.1q3.15,1.95,6.6,3.9c2.3,1.2,4.6,2.5,6.8,3.7,4.5,2.3,9.4,4.6,14.5,6.8,5.4,2.2,10.2,4.2,15.7,6.1,5.5,2,11.2,3.9,17.3,5.7,11.6,3.6,24.3,6.9,38.2,9.9,7,1.5,13.9,2.9,21.1,4.1,7.2,1.3,14.8,2.4,22.5,3.3,15.8,2,31.7,3.7,47.7,5.9s31.5,4.9,47,9.3a254.551,254.551,0,0,1,80,38.3c10.5,7.3,20.3,15.2,28.3,25A4.4,4.4,0,0,0,633.5,844.5Z" transform="translate(-91.345 -18.618)" fill="#ce7e5c"/>
  </g>
</svg>
