<svg xmlns="http://www.w3.org/2000/svg" width="126.603" height="126.603" viewBox="0 0 126.603 126.603">
  <g id="Yoga_Mat" data-name="Yoga Mat" transform="translate(-1725.993 -62.736)">
    <circle id="Ellipse_7" data-name="Ellipse 7" cx="63.301" cy="63.301" r="63.301" transform="translate(1725.993 62.736)" fill="#dc9c47"/>
    <path id="Path_2" data-name="Path 2" d="M1763.937,134.392" fill="none" stroke="#070f25" stroke-miterlimit="10" stroke-width="1"/>
    <path id="Path_3" data-name="Path 3" d="M1766.309,131.914c-1-1.57-.714-2.129-3.568-2.706s-4.282-.006-5.281,2.706-1.142,4.281,0,6.137,1.8,3.8,3.373,4.379,4.276,2.156,5.476,1.788,4.091-1.262,4.985-2a24.061,24.061,0,0,0,3.89-4.1,11,11,0,0,0,1.525-3.522,19.646,19.646,0,0,0-.578-5.837c-.631-1.943-1.735-4.519-3.26-5.833a16.731,16.731,0,0,0-5.888-3.417c-1.84-.421-3.049-1.157-5.362-.894s-5.309.788-6.939,2.1a55.787,55.787,0,0,0-4.469,3.522,22.907,22.907,0,0,0-3.312,6.308c-.42,1.788-1.629,6.729-.63,8.727s2.838,7.307,4.258,8.516,4.994,5.152,6.886,5.468,7.15,1.577,10.725,1.156,10.724-3.417,12.3-3.68,9.463-1.735,11.618-2,13.3-.158,15.246-.211,14.825-.052,14.825-.052l16.612-35.433-46.735-.42s3.039-12.936-5.373-15.623-15.481-2.9-19.581,2.545-12.794,18.592-12.794,18.592l-2.76,4.978" fill="#b2573c" stroke="#dc9c47" stroke-miterlimit="10" stroke-width="3"/>
    <line id="Line_6" data-name="Line 6" x1="13.329" y2="19.032" transform="translate(1776.377 112.717)" fill="none" stroke="#dc9c47" stroke-miterlimit="10" stroke-width="4"/>
  </g>
</svg>
